PathFileType        4      (X/Y/Z)      C:\Users\pc\Desktop\IMUTRC\Sujet_03\Sujet_03_velo_80.trc         
DataRate	CameraRate	NumFrames	NumMarkers	Units	OrigDataRate	OrigDataStartFrame	OrigNumFrames
60.0	60.0	4	64	mm	60.0	1	936
Frame#	Time	pHipOrigin			pRightASI			pLeftASI			pRightCSI			pLeftCSI			pRightIschialTub			pLeftIschialTub			pSacrum			pL5SpinalProcess			pL3SpinalProcess			pT12SpinalProcess			pIJ			pT4SpinalProcess			pT8SpinalProcess			pPX			pC7SpinalProcess			pTopOfHead			pRightAuricularis			pLeftAuricularis			pBackOfHead			pRightAcromion			pLeftAcromion			pRightArmLatEpicondyle			pRightArmMedEpicondyle			pLeftArmLatEpicondyle			pLeftArmMedEpicondyle			pRightUlnarStyloid			pRightRadialStyloid			pRightOlecranon			pLeftUlnarStyloid			pLeftRadialStyloid			pLeftOlecranon			pRightTopOfHand			pRightPinky			pRightBallHand			pLeftTopOfHand			pLeftPinky			pLeftBallHand			pRightGreaterTrochanter			pRightKneeLatEpicondyle			pRightKneeMedEpicondyle			pRightPatella			pLeftGreaterTrochanter			pLeftKneeLatEpicondyle			pLeftKneeMedEpicondyle			pLeftPatella			pRightTibialTub			pRightLatMalleolus			pRightMedMalleolus			pLeftTibialTub			pLeftLatMalleolus			pLeftMedMalleolus			pRightHeelFoot			pRightFirstMetatarsal			pRightFifthMetatarsal			pRightPivotFoot			pRightHeelCenter			pRightToe			pLeftHeelFoot			pLeftFirstMetatarsal			pLeftFifthMetatarsal			pLeftPivotFoot			pLeftHeelCenter			pLeftToe			
		X1	Y1	Z1	X2	Y2	Z2	X3	Y3	Z3	X4	Y4	Z4	X5	Y5	Z5	X6	Y6	Z6	X7	Y7	Z7	X8	Y8	Z8	X9	Y9	Z9	X10	Y10	Z10	X11	Y11	Z11	X12	Y12	Z12	X13	Y13	Z13	X14	Y14	Z14	X15	Y15	Z15	X16	Y16	Z16	X17	Y17	Z17	X18	Y18	Z18	X19	Y19	Z19	X20	Y20	Z20	X21	Y21	Z21	X22	Y22	Z22	X23	Y23	Z23	X24	Y24	Z24	X25	Y25	Z25	X26	Y26	Z26	X27	Y27	Z27	X28	Y28	Z28	X29	Y29	Z29	X30	Y30	Z30	X31	Y31	Z31	X32	Y32	Z32	X33	Y33	Z33	X34	Y34	Z34	X35	Y35	Z35	X36	Y36	Z36	X37	Y37	Z37	X38	Y38	Z38	X39	Y39	Z39	X40	Y40	Z40	X41	Y41	Z41	X42	Y42	Z42	X43	Y43	Z43	X44	Y44	Z44	X45	Y45	Z45	X46	Y46	Z46	X47	Y47	Z47	X48	Y48	Z48	X49	Y49	Z49	X50	Y50	Z50	X51	Y51	Z51	X52	Y52	Z52	X53	Y53	Z53	X54	Y54	Z54	X55	Y55	Z55	X56	Y56	Z56	X57	Y57	Z57	X58	Y58	Z58	X59	Y59	Z59	X60	Y60	Z60	X61	Y61	Z61	X62	Y62	Z62	X63	Y63	Z63	X64	Y64	Z64	
1	0.0	0.0	1249.98473	7.653948992887842E-14	100.67573000000002	1328.53837	131.63510000000008	87.10211999999999	1325.65036	-142.4939799999999	75.55011	1406.39888	108.06901000000009	64.40242999999998	1403.97296	-118.23476999999991	-67.92579	1211.51655	60.47475000000008	-73.52851	1210.30359	-52.67713999999992	-58.91523	1290.12795	2.4836800000000827	6.00704	1375.90159	-2.310399999999916	77.68724	1471.95651	-8.837279999999915	143.99575	1559.23191	-15.710729999999913	414.31267	1588.2852	-27.72480999999993	294.63389	1695.48781	-29.977449999999916	218.15962	1638.70971	-23.277289999999915	313.17486	1506.43925	-18.425449999999927	341.304	1728.29551	-31.999049999999915	588.17035	1827.98931	-81.44163999999994	525.78952	1768.72753	9.068320000000076	488.76534	1770.46033	-130.4798999999999	476.00038	1816.09075	-51.81073999999992	345.52048	1722.46174	181.07768000000007	333.27535	1684.74445	-246.2309899999999	439.09172	1438.10913	161.09271000000007	418.93347	1433.14177	104.19909000000006	424.76723	1408.01616	-232.07978999999995	412.40659	1403.79968	-172.87575999999996	522.61272	1195.80582	120.14085000000004	572.0553	1216.83047	124.35734000000004	402.18306	1431.23569	133.13686000000007	522.38168	1169.98709	-208.80249999999995	570.78458	1193.3799	-211.86377999999993	391.78626	1400.21856	-203.19976999999994	723.38657	1105.2381	178.8828	628.54461	1107.95282	147.11479000000003	576.15626	1165.36629	118.81237000000004	699.70496	1073.06577	-306.30142	611.04332	1080.63233	-260.61324	570.49578	1137.98804	-216.83113999999998	29.51537000000001	1219.19864	161.6703100000001	217.4665	858.02519	93.80228000000004	209.32234	861.60631	14.266730000000042	250.96731	883.7284	48.57618000000004	8.375199999999989	1241.08969	-170.79639999999992	392.8837	1105.46914	-235.48762999999997	412.29107	1104.71826	-157.85814999999997	414.71699	1148.32708	-196.55736999999996	254.54844	810.43093	46.61234000000004	47.18994000000001	443.94356	78.84244000000002	42.97346	446.54276	12.187370000000024	432.44932	1054.40928	-198.34792999999996	174.60856	720.96065	-171.54727999999994	187.77785	722.80897	-105.98964999999997	-34.13618	394.0389	22.58417000000003	113.67173	321.26127	-29.688649999999985	107.02933	296.53998	47.82530000000001	130.36438	297.5219	6.007040000000011	0.9241600000000012	374.45825	19.40737000000002	202.10233	255.29932	-1.270719999999997	118.17701	662.16094	-95.13075999999997	281.58013	605.61388	-92.93587999999997	254.20188	581.0081	-165.82904	288.91565	584.18491	-132.96358	154.39255	646.50797	-103.44820999999997	363.36833	550.10649	-149.48295	
2	0.017	0.0	1249.98473	7.653948992887842E-14	100.09813000000001	1328.71165	131.9239000000001	86.64003999999998	1326.69004	-142.20517999999993	74.51043	1406.5144	108.58885000000008	63.42050999999999	1404.83936	-117.71492999999991	-67.69475	1210.82343	60.30147000000008	-73.23971	1210.01479	-52.85041999999992	-59.14627	1289.72363	2.5992000000000828	5.1984	1376.01711	-1.906079999999916	76.58979	1472.36083	-8.144159999999914	142.78279	1559.80951	-14.786569999999912	413.04195	1588.8628	-26.56960999999993	293.47869	1696.12317	-28.764489999999913	216.94666	1639.40283	-22.237609999999915	311.90414	1507.07461	-17.501289999999926	340.14879	1728.93087	-30.728329999999914	587.30395	1828.04707	-80.40195999999993	524.8076	1769.07409	10.223520000000077	487.6679	1770.69137	-129.26693999999992	475.13398	1816.49507	-50.65553999999992	344.24976	1722.75054	182.29064000000008	332.12015	1685.43757	-245.01802999999992	437.93652	1438.57122	161.72807000000006	417.89379	1433.83489	104.77669000000006	423.72755	1408.76704	-231.44442999999995	411.13587	1404.31952	-172.35591999999994	521.6308	1196.44118	120.54517000000004	571.01562	1217.46583	124.76166000000005	401.02786	1431.81329	133.71446000000006	521.0532	1170.56469	-208.62921999999995	569.4561	1193.9575	-211.63273999999996	390.5733	1400.91168	-202.62216999999995	722.46241	1105.93122	179.11384	627.62045	1108.58818	147.46135000000004	575.11658	1166.00165	119.21669000000004	698.26096	1073.64337	-306.30142	609.59932	1081.20993	-260.55548	569.1673	1138.56564	-216.77337999999997	29.97745000000001	1219.2564	161.61255000000008	223.8201	861.25975	93.22468000000005	215.61818	864.84087	13.746890000000041	256.9166	887.54056	48.11410000000004	8.663999999999989	1242.01385	-170.85415999999992	389.4181	1096.05426	-235.08330999999998	408.30563	1093.6861	-157.39606999999998	412.23331	1137.69924	-195.45992999999999	258.30284	812.16373	46.958900000000035	33.269780000000004	456.13093	78.32260000000002	30.26625	458.44133	11.552010000000026	431.00532	1045.22544	-197.77032999999997	185.92952	702.07312	-174.14647999999994	198.23241	704.268	-108.47332999999998	-48.6917	409.22979	21.660010000000028	96.8058	331.88911	-30.728329999999985	89.35476	307.3411	46.84338000000002	112.68981	307.6299	4.967360000000012	-14.266729999999999	388.60946	18.425450000000026	182.98376	263.32796	-2.310399999999995	131.75062	640.21213	-99.34724999999997	297.5219	591.05835	-96.74803999999997	271.87644	566.68362	-170.39208	306.12814	570.78458	-137.18006	168.65928	626.40749	-107.60692999999998	381.96705	540.63385	-153.52615	
3	0.033	0.0	1249.98473	7.653948992887842E-14	99.52053000000001	1328.94269	132.2127000000001	86.17795999999998	1327.78748	-141.91637999999992	73.41299	1406.62992	109.16645000000008	62.380829999999996	1405.648	-117.13732999999992	-67.46371	1210.18807	60.185950000000076	-72.95091	1209.72599	-52.965939999999925	-59.43507	1289.31931	2.7147200000000824	4.44752	1376.13263	-1.501759999999916	75.55011	1472.76515	-7.451039999999914	141.56982	1560.44487	-13.920169999999914	411.82899	1589.4404	-25.41440999999993	292.26573	1696.75853	-27.609289999999916	215.7337	1640.03819	-21.140169999999916	310.63342	1507.65221	-16.519369999999924	338.99359	1729.56623	-29.457609999999914	586.37979	1828.04707	-79.36227999999993	523.82568	1769.36289	11.436490000000076	486.5127	1770.92241	-128.0539799999999	474.20982	1816.84163	-49.500339999999916	342.97904	1722.98158	183.5613600000001	331.02271	1686.18845	-243.80506999999992	436.72356	1439.09106	162.42119000000005	416.85411	1434.52801	105.35429000000006	422.63011	1409.57568	-230.86682999999994	409.80739	1404.83936	-171.77831999999995	520.64888	1197.07655	120.89174000000004	570.0337	1218.15895	125.22374000000005	399.93042	1432.39089	134.34982000000005	519.72472	1171.20005	-208.51368999999994	568.18538	1194.5351	-211.45945999999995	389.4181	1401.54704	-202.10232999999994	721.48049	1106.62434	179.40264	626.63853	1109.28131	147.75015000000002	574.13466	1166.63701	119.56325000000004	696.87472	1074.27873	-306.30142	608.21308	1081.84529	-260.55548	567.78106	1139.14324	-216.65785999999997	30.439530000000012	1219.2564	161.55479000000008	230.05818	864.55207	92.70484000000005	221.91402	868.19096	13.22705000000004	262.75036	891.52601	47.59426000000004	8.95279999999999	1242.99577	-170.85415999999992	385.60594	1086.69713	-234.85226999999998	404.03138	1082.82721	-157.10726999999997	409.46083	1127.12915	-194.53576999999999	261.99948	814.01205	47.30546000000003	19.869450000000004	469.24245	77.34068000000003	18.02113	471.20629	10.570080000000027	429.50356	1036.09935	-197.13496999999998	197.59705	683.70543	-176.63015999999996	209.0913	686.30463	-110.78372999999998	-63.18947	424.47843	20.735850000000028	79.82436	342.63248	-31.71024999999998	71.62243	318.3155	45.80370000000001	94.95748	317.91118	3.985440000000014	-29.45761	402.76066	17.443530000000028	163.86519	271.3566	-3.407839999999994	145.49751	618.37884	-103.56372999999998	313.23262	576.6761	-100.44468999999998	289.31997	552.76345	-174.78184	323.10959	557.67305	-141.1655	183.04152	606.42252	-111.82340999999997	400.45026	531.21896	-157.45383	
4	0.05	0.0	1249.98473	7.653948992887842E-14	99.00069000000002	1329.28925	132.38598000000007	85.83139999999999	1328.48061	-141.7430999999999	72.48883	1406.86096	109.45525000000009	61.629949999999994	1406.16784	-116.84852999999991	-67.29043	1209.72599	60.07043000000008	-72.71987	1209.37943	-53.08145999999992	-59.60835	1288.97275	2.7724800000000824	3.81216	1376.24815	-1.270719999999916	74.62595	1473.11171	-7.1044799999999135	140.5879	1560.90695	-13.342569999999913	410.84707	1589.90248	-24.31696999999993	291.34157	1697.27837	-26.569609999999916	214.75178	1640.61579	-20.389289999999914	309.53598	1508.17205	-15.652969999999927	338.12719	1730.08607	-28.360169999999915	585.68667	1828.10483	-78.20707999999993	523.01704	1769.59393	12.591690000000076	485.70406	1771.15345	-126.84101999999992	473.5167	1817.13043	-48.345139999999915	341.82384	1723.27038	184.6010400000001	330.27183	1686.76605	-242.7653899999999	435.74164	1439.6109	162.88327000000007	415.98771	1435.22113	105.75861000000006	421.93699	1410.21104	-230.28921999999994	408.94099	1405.30144	-171.25847999999993	519.898	1197.76967	121.12278000000005	569.22506	1218.85208	125.45478000000004	399.00626	1432.96849	134.81190000000007	518.80056	1171.71989	-208.45592999999994	567.26122	1194.99718	-211.40169999999995	388.60946	1402.12464	-201.52472999999995	720.78737	1107.37522	179.57592	625.94541	1109.97443	147.92343000000002	573.38378	1167.38789	119.73653000000004	695.8928	1074.79857	-306.35918	607.23116	1082.36513	-260.61324	566.8569	1139.66308	-216.65785999999997	30.95937000000001	1219.5452	161.55479000000008	238.20235	869.34616	92.41604000000004	230.05818	872.92728	12.880490000000039	270.37468	897.07097	47.42098000000004	9.18383999999999	1242.99577	-170.79639999999992	380.98513	1074.91409	-233.58154999999996	398.83298	1070.12001	-155.77878999999996	405.8797	1114.42195	-193.03400999999997	267.37116	817.65093	47.652020000000036	9.241600000000005	484.54886	76.64755000000002	8.20192	486.28166	9.81920000000003	426.78883	1025.00943	-195.69096999999996	207.41625	664.47134	-178.94055999999998	218.3329	667.07054	-113.03636999999998	-75.03027	442.03748	20.27377000000003	65.26883	355.68624	-32.287849999999985	56.31603	331.54255	45.226100000000024	79.65108	330.38735	3.4078400000000157	-41.93378	419.22227	16.981450000000027	147.05703	281.63789	-4.043199999999992	157.39607	595.79467	-107.78020999999997	326.69071	561.02314	-104.08356999999998	304.33758	537.57256	-179.05608	337.66511	543.23305	-145.09319	195.45993	585.57115	-115.92436999999997	416.27651	520.1868	-161.32375	
